ffmpeg started on 2023-11-28 at 22:47:05
Report written to "ffmpeg-20231128-224705.log"
Log level: 48
Command line:
ffmpeg -r 10 -i "_tmp%07d.png" -vframes 10 -vcodec h264 -pix_fmt yuv420p -report -metadata "artist=HazyResearch" -y animations/HeLaS3.H2-0.E1-1.S1-1.lr5.0.ep100.seed0.mp4
ffmpeg version 4.4 Copyright (c) 2000-2021 the FFmpeg developers
  built with Apple clang version 12.0.0 (clang-1200.0.32.29)
  configuration: --prefix=/usr/local/Cellar/ffmpeg/4.4_1 --enable-shared --enable-pthreads --enable-version3 --enable-avresample --cc=clang --host-cflags= --host-ldflags= --enable-ffplay --enable-gnutls --enable-gpl --enable-libaom --enable-libbluray --enable-libdav1d --enable-libmp3lame --enable-libopus --enable-librav1e --enable-librubberband --enable-libsnappy --enable-libsrt --enable-libtesseract --enable-libtheora --enable-libvidstab --enable-libvorbis --enable-libvpx --enable-libwebp --enable-libx264 --enable-libx265 --enable-libxml2 --enable-libxvid --enable-lzma --enable-libfontconfig --enable-libfreetype --enable-frei0r --enable-libass --enable-libopencore-amrnb --enable-libopencore-amrwb --enable-libopenjpeg --enable-libspeex --enable-libsoxr --enable-libzmq --enable-libzimg --disable-libjack --disable-indev=jack --enable-videotoolbox
  libavutil      56. 70.100 / 56. 70.100
  libavcodec     58.134.100 / 58.134.100
  libavformat    58. 76.100 / 58. 76.100
  libavdevice    58. 13.100 / 58. 13.100
  libavfilter     7.110.100 /  7.110.100
  libavresample   4.  0.  0 /  4.  0.  0
  libswscale      5.  9.100 /  5.  9.100
  libswresample   3.  9.100 /  3.  9.100
  libpostproc    55.  9.100 / 55.  9.100
Splitting the commandline.
Reading option '-r' ... matched as option 'r' (set frame rate (Hz value, fraction or abbreviation)) with argument '10'.
Reading option '-i' ... matched as input url with argument '_tmp%07d.png'.
Reading option '-vframes' ... matched as option 'vframes' (set the number of video frames to output) with argument '10'.
Reading option '-vcodec' ... matched as option 'vcodec' (force video codec ('copy' to copy stream)) with argument 'h264'.
Reading option '-pix_fmt' ... matched as option 'pix_fmt' (set pixel format) with argument 'yuv420p'.
Reading option '-report' ... matched as option 'report' (generate a report) with argument '1'.
Reading option '-metadata' ... matched as option 'metadata' (add metadata) with argument 'artist=HazyResearch'.
Reading option '-y' ... matched as option 'y' (overwrite output files) with argument '1'.
Reading option 'animations/HeLaS3.H2-0.E1-1.S1-1.lr5.0.ep100.seed0.mp4' ... matched as output url.
Finished splitting the commandline.
Parsing a group of options: global .
Applying option report (generate a report) with argument 1.
Applying option y (overwrite output files) with argument 1.
Successfully parsed a group of options.
Parsing a group of options: input url _tmp%07d.png.
Applying option r (set frame rate (Hz value, fraction or abbreviation)) with argument 10.
Successfully parsed a group of options.
Opening an input file: _tmp%07d.png.
[image2 @ 0x7fe05e00bc00] Opening '_tmp0000000.png' for reading
[file @ 0x7fe05d8218c0] Setting default whitelist 'file,crypto,data'
[AVIOContext @ 0x7fe05d821a40] Statistics: 52029 bytes read, 0 seeks
[image2 @ 0x7fe05e00bc00] Opening '_tmp0000001.png' for reading
[file @ 0x7fe05cf10c40] Setting default whitelist 'file,crypto,data'
[AVIOContext @ 0x7fe05cf112c0] Statistics: 62628 bytes read, 0 seeks
[image2 @ 0x7fe05e00bc00] Opening '_tmp0000002.png' for reading
[file @ 0x7fe05da05a80] Setting default whitelist 'file,crypto,data'
[AVIOContext @ 0x7fe05da05bc0] Statistics: 74958 bytes read, 0 seeks
[image2 @ 0x7fe05e00bc00] Opening '_tmp0000003.png' for reading
[file @ 0x7fe05da05b80] Setting default whitelist 'file,crypto,data'
[AVIOContext @ 0x7fe05da05dc0] Statistics: 90082 bytes read, 0 seeks
[image2 @ 0x7fe05e00bc00] Opening '_tmp0000004.png' for reading
[file @ 0x7fe05da05dc0] Setting default whitelist 'file,crypto,data'
[AVIOContext @ 0x7fe05da05e40] Statistics: 103403 bytes read, 0 seeks
[image2 @ 0x7fe05e00bc00] Opening '_tmp0000005.png' for reading
[file @ 0x7fe05da05e40] Setting default whitelist 'file,crypto,data'
[AVIOContext @ 0x7fe05da05fc0] Statistics: 115572 bytes read, 0 seeks
[image2 @ 0x7fe05e00bc00] Opening '_tmp0000006.png' for reading
[file @ 0x7fe05d821bc0] Setting default whitelist 'file,crypto,data'
[AVIOContext @ 0x7fe05d821c80] Statistics: 123863 bytes read, 0 seeks
[image2 @ 0x7fe05e00bc00] Opening '_tmp0000007.png' for reading
[file @ 0x7fe05d821cc0] Setting default whitelist 'file,crypto,data'
[AVIOContext @ 0x7fe05d821e40] Statistics: 129672 bytes read, 0 seeks
[image2 @ 0x7fe05e00bc00] Opening '_tmp0000008.png' for reading
[file @ 0x7fe05d821e40] Setting default whitelist 'file,crypto,data'
[AVIOContext @ 0x7fe05d821fc0] Statistics: 135125 bytes read, 0 seeks
[image2 @ 0x7fe05e00bc00] Opening '_tmp0000009.png' for reading
[file @ 0x7fe05d821fc0] Setting default whitelist 'file,crypto,data'
[AVIOContext @ 0x7fe05d822040] Statistics: 139371 bytes read, 0 seeks
Input #0, image2, from '_tmp%07d.png':
  Duration: 00:00:00.40, start: 0.000000, bitrate: N/A
  Stream #0:0, 10, 1/25: Video: png, rgba(pc), 1080x1080 [SAR 4251:4251 DAR 1:1], 25 fps, 25 tbr, 25 tbn, 25 tbc
Successfully opened the file.
Parsing a group of options: output url animations/HeLaS3.H2-0.E1-1.S1-1.lr5.0.ep100.seed0.mp4.
Applying option vframes (set the number of video frames to output) with argument 10.
Applying option vcodec (force video codec ('copy' to copy stream)) with argument h264.
Applying option pix_fmt (set pixel format) with argument yuv420p.
Applying option metadata (add metadata) with argument artist=HazyResearch.
Successfully parsed a group of options.
Opening an output file: animations/HeLaS3.H2-0.E1-1.S1-1.lr5.0.ep100.seed0.mp4.
Matched encoder 'libx264' for codec 'h264'.
[file @ 0x7fe05dc055c0] Setting default whitelist 'file,crypto,data'
Successfully opened the file.
detected 8 logical cores
Stream mapping:
  Stream #0:0 -> #0:0 (png (native) -> h264 (libx264))
Press [q] to stop, [?] for help
cur_dts is invalid st:0 (0) [init:0 i_done:0 finish:0] (this is harmless if it occurs once at the start per stream)
cur_dts is invalid st:0 (0) [init:0 i_done:0 finish:0] (this is harmless if it occurs once at the start per stream)
cur_dts is invalid st:0 (0) [init:0 i_done:0 finish:0] (this is harmless if it occurs once at the start per stream)
cur_dts is invalid st:0 (0) [init:0 i_done:0 finish:0] (this is harmless if it occurs once at the start per stream)
cur_dts is invalid st:0 (0) [init:0 i_done:0 finish:0] (this is harmless if it occurs once at the start per stream)
cur_dts is invalid st:0 (0) [init:0 i_done:0 finish:0] (this is harmless if it occurs once at the start per stream)
cur_dts is invalid st:0 (0) [init:0 i_done:0 finish:0] (this is harmless if it occurs once at the start per stream)
cur_dts is invalid st:0 (0) [init:0 i_done:0 finish:0] (this is harmless if it occurs once at the start per stream)
cur_dts is invalid st:0 (0) [init:0 i_done:0 finish:0] (this is harmless if it occurs once at the start per stream)
[graph 0 input from stream 0:0 @ 0x7fe05d820740] Setting 'video_size' to value '1080x1080'
[graph 0 input from stream 0:0 @ 0x7fe05d820740] Setting 'pix_fmt' to value '26'
[graph 0 input from stream 0:0 @ 0x7fe05d820740] Setting 'time_base' to value '1/10'
[graph 0 input from stream 0:0 @ 0x7fe05d820740] Setting 'pixel_aspect' to value '4251/4251'
[graph 0 input from stream 0:0 @ 0x7fe05d820740] Setting 'frame_rate' to value '10/1'
[graph 0 input from stream 0:0 @ 0x7fe05d820740] w:1080 h:1080 pixfmt:rgba tb:1/10 fr:10/1 sar:4251/4251
[format @ 0x7fe05da06cc0] Setting 'pix_fmts' to value 'yuv420p'
[auto_scaler_0 @ 0x7fe05da075c0] Setting 'flags' to value 'bicubic'
[auto_scaler_0 @ 0x7fe05da075c0] w:iw h:ih flags:'bicubic' interl:0
[format @ 0x7fe05da06cc0] auto-inserting filter 'auto_scaler_0' between the filter 'Parsed_null_0' and the filter 'format'
[AVFilterGraph @ 0x7fe05cf10c80] query_formats: 4 queried, 2 merged, 1 already done, 0 delayed
[auto_scaler_0 @ 0x7fe05da075c0] w:1080 h:1080 fmt:rgba sar:4251/4251 -> w:1080 h:1080 fmt:yuv420p sar:1/1 flags:0x4
[libx264 @ 0x7fe05e809a00] using mv_range_thread = 40
[libx264 @ 0x7fe05e809a00] using SAR=1/1
[libx264 @ 0x7fe05e809a00] using cpu capabilities: MMX2 SSE2Fast SSSE3 SSE4.2 AVX FMA3 BMI2 AVX2
[libx264 @ 0x7fe05e809a00] profile High, level 3.2, 4:2:0, 8-bit
[libx264 @ 0x7fe05e809a00] 264 - core 161 r3049 55d517b - H.264/MPEG-4 AVC codec - Copyleft 2003-2021 - http://www.videolan.org/x264.html - options: cabac=1 ref=3 deblock=1:0:0 analyse=0x3:0x113 me=hex subme=7 psy=1 psy_rd=1.00:0.00 mixed_ref=1 me_range=16 chroma_me=1 trellis=1 8x8dct=1 cqm=0 deadzone=21,11 fast_pskip=1 chroma_qp_offset=-2 threads=12 lookahead_threads=2 sliced_threads=0 nr=0 decimate=1 interlaced=0 bluray_compat=0 constrained_intra=0 bframes=3 b_pyramid=2 b_adapt=1 b_bias=0 direct=1 weightb=1 open_gop=0 weightp=2 keyint=250 keyint_min=10 scenecut=40 intra_refresh=0 rc_lookahead=40 rc=crf mbtree=1 crf=23.0 qcomp=0.60 qpmin=0 qpmax=69 qpstep=4 ip_ratio=1.40 aq=1:1.00
Output #0, mp4, to 'animations/HeLaS3.H2-0.E1-1.S1-1.lr5.0.ep100.seed0.mp4':
  Metadata:
    artist          : HazyResearch
    encoder         : Lavf58.76.100
  Stream #0:0, 0, 1/10240: Video: h264 (avc1 / 0x31637661), yuv420p(tv, progressive), 1080x1080 [SAR 1:1 DAR 1:1], q=2-31, 10 fps, 10240 tbn
    Metadata:
      encoder         : Lavc58.134.100 libx264
    Side data:
      cpb: bitrate max/min/avg: 0/0/0 buffer size: 0 vbv_delay: N/A
Clipping frame in rate conversion by 0.000008
frame=    1 fps=0.0 q=0.0 size=       0kB time=00:00:00.00 bitrate=N/A speed=   0x    cur_dts is invalid st:0 (0) [init:1 i_done:0 finish:0] (this is harmless if it occurs once at the start per stream)
cur_dts is invalid st:0 (0) [init:1 i_done:0 finish:0] (this is harmless if it occurs once at the start per stream)
cur_dts is invalid st:0 (0) [init:1 i_done:0 finish:0] (this is harmless if it occurs once at the start per stream)
cur_dts is invalid st:0 (0) [init:1 i_done:0 finish:0] (this is harmless if it occurs once at the start per stream)
cur_dts is invalid st:0 (0) [init:1 i_done:0 finish:0] (this is harmless if it occurs once at the start per stream)
cur_dts is invalid st:0 (0) [init:1 i_done:0 finish:0] (this is harmless if it occurs once at the start per stream)
cur_dts is invalid st:0 (0) [init:1 i_done:0 finish:0] (this is harmless if it occurs once at the start per stream)
cur_dts is invalid st:0 (0) [init:1 i_done:0 finish:0] (this is harmless if it occurs once at the start per stream)
cur_dts is invalid st:0 (0) [init:1 i_done:0 finish:0] (this is harmless if it occurs once at the start per stream)
No more output streams to write to, finishing.
[libx264 @ 0x7fe05e809a00] frame=   0 QP=16.95 NAL=3 Slice:I Poc:0   I:4624 P:0    SKIP:0    size=12370 bytes
[libx264 @ 0x7fe05e809a00] frame=   1 QP=25.50 NAL=2 Slice:P Poc:8   I:218  P:52   SKIP:4354 size=14404 bytes
[libx264 @ 0x7fe05e809a00] frame=   2 QP=26.69 NAL=2 Slice:B Poc:4   I:88   P:168  SKIP:4368 size=6075 bytes
[libx264 @ 0x7fe05e809a00] frame=   3 QP=26.33 NAL=0 Slice:B Poc:2   I:39   P:143  SKIP:4442 size=2857 bytes
[libx264 @ 0x7fe05e809a00] frame=   4 QP=27.06 NAL=0 Slice:B Poc:6   I:80   P:202  SKIP:4342 size=8660 bytes
[libx264 @ 0x7fe05e809a00] frame=   5 QP=25.96 NAL=2 Slice:P Poc:16  I:312  P:125  SKIP:4187 size=21126 bytes
[libx264 @ 0x7fe05e809a00] frame=   6 QP=27.37 NAL=2 Slice:B Poc:12  I:152  P:279  SKIP:4193 size=17078 bytes
[libx264 @ 0x7fe05e809a00] frame=   7 QP=27.91 NAL=0 Slice:B Poc:10  I:95   P:280  SKIP:4249 size=13369 bytes
[libx264 @ 0x7fe05e809a00] frame=   8 QP=27.93 NAL=0 Slice:B Poc:14  I:91   P:362  SKIP:4171 size=15206 bytes
[libx264 @ 0x7fe05e809a00] frame=   9 QP=28.14 NAL=2 Slice:P Poc:18  I:206  P:333  SKIP:4085 size=17984 bytes
frame=   10 fps=0.0 q=-1.0 Lsize=     128kB time=00:00:00.70 bitrate=1495.3kbits/s speed=3.82x    
video:127kB audio:0kB subtitle:0kB other streams:0kB global headers:0kB muxing overhead: 0.796494%
Input file #0 (_tmp%07d.png):
  Input stream #0:0 (video): 10 packets read (1026703 bytes); 10 frames decoded; 
  Total: 10 packets (1026703 bytes) demuxed
Output file #0 (animations/HeLaS3.H2-0.E1-1.S1-1.lr5.0.ep100.seed0.mp4):
  Output stream #0:0 (video): 10 frames encoded; 10 packets muxed (129819 bytes); 
  Total: 10 packets (129819 bytes) muxed
10 frames successfully decoded, 0 decoding errors
[AVIOContext @ 0x7fe05dc05780] Statistics: 2 seeks, 4 writeouts
[libx264 @ 0x7fe05e809a00] frame I:1     Avg QP:16.95  size: 12370
[libx264 @ 0x7fe05e809a00] frame P:3     Avg QP:26.53  size: 17838
[libx264 @ 0x7fe05e809a00] frame B:6     Avg QP:27.21  size: 10541
[libx264 @ 0x7fe05e809a00] consecutive B-frames: 20.0%  0.0%  0.0% 80.0%
[libx264 @ 0x7fe05e809a00] mb I  I16..4: 38.7% 54.4%  6.9%
[libx264 @ 0x7fe05e809a00] mb P  I16..4:  0.1%  0.6%  4.7%  P16..4:  1.6%  1.2%  0.9%  0.0%  0.0%    skip:91.0%
[libx264 @ 0x7fe05e809a00] mb B  I16..4:  0.0%  0.3%  1.7%  B16..8:  2.6%  1.4%  0.9%  direct: 0.3%  skip:92.9%  L0:50.4% L1:39.2% BI:10.4%
[libx264 @ 0x7fe05e809a00] 8x8 transform intra:45.3% inter:11.2%
[libx264 @ 0x7fe05e809a00] coded y,uvDC,uvAC intra: 17.9% 12.1% 11.4% inter: 1.7% 1.7% 1.6%
[libx264 @ 0x7fe05e809a00] i16 v,h,dc,p: 90%  5%  5%  0%
[libx264 @ 0x7fe05e809a00] i8 v,h,dc,ddl,ddr,vr,hd,vl,hu: 73%  8% 17%  0%  0%  0%  0%  0%  0%
[libx264 @ 0x7fe05e809a00] i4 v,h,dc,ddl,ddr,vr,hd,vl,hu: 27% 18% 22%  6%  5%  6%  5%  6%  5%
[libx264 @ 0x7fe05e809a00] i8c dc,h,v,p: 92%  3%  4%  1%
[libx264 @ 0x7fe05e809a00] Weighted P-Frames: Y:0.0% UV:0.0%
[libx264 @ 0x7fe05e809a00] ref P L0: 64.0%  8.3% 17.7% 10.0%
[libx264 @ 0x7fe05e809a00] ref B L0: 84.1% 13.5%  2.3%
[libx264 @ 0x7fe05e809a00] ref B L1: 90.5%  9.5%
[libx264 @ 0x7fe05e809a00] kb/s:1033.03
